# xmcd
#
# Track frame offsets: 
#        150
#        18492
#        34079
#        51112
#        65984
#        82634
#        106372
#        128724
#        147675
#        168342
#        182700
#        209060
#        225412
#
# Disc length: 3198 seconds
#
# Revision: 0
# Processed by: cddbd v1.5.2PL0 Copyright (c) Steve Scherf et al.
# Submitted via: ExactAudioCopy v0.99pb3
#
DISCID=b60c7c0d
DTITLE=Yarn - Come On In
DYEAR=2010
DGENRE=Country
TTITLE0=Alone on the Weekend
TTITLE1=New York City Found
TTITLE2=Schenectedy
TTITLE3=Down on Your Luck
TTITLE4=These Bars Don't Look Too Friendly
TTITLE5=Strikes and Gutters
TTITLE6=Abilene
TTITLE7=Yodelay
TTITLE8=Time Burns On
TTITLE9=Final Bow
TTITLE10=I Wanted to Get High
TTITLE11=I Gotta Go
TTITLE12=This Whole Zoo
EXTD=
EXTT0=
EXTT1=
EXTT2=
EXTT3=
EXTT4=
EXTT5=
EXTT6=
EXTT7=
EXTT8=
EXTT9=
EXTT10=
EXTT11=
EXTT12=
PLAYORDER=
